<svg width="432" height="200" viewBox="0 0 432 200" fill="none" xmlns="http://www.w3.org/2000/svg">
<path d="M6.016 145V55.4H64.768V69.864H23.936V93.032H56.576V107.112H23.936V145H6.016ZM74.394 145V52.84H92.314V145H74.394ZM188.218 145L169.53 81.512H187.194L197.69 126.184L209.85 81.512H229.69L241.85 126.056L252.346 81.512H270.138L251.45 145H232.89L219.834 99.048L206.778 145H188.218ZM277.391 145V55.4H314.639C333.199 55.4 343.439 64.744 343.439 78.44C343.439 89.704 336.655 96.36 327.823 98.792C338.319 100.84 345.487 109.928 345.487 120.552C345.487 135.016 334.863 145 315.919 145H277.391ZM295.311 92.648H311.695C320.399 92.648 325.135 88.552 325.135 81.128C325.135 73.96 320.527 69.736 311.567 69.736H295.311V92.648ZM295.311 130.408H313.103C322.063 130.408 327.311 126.184 327.311 118.376C327.311 110.696 321.807 105.96 312.847 105.96H295.311V130.408ZM355.251 71.4V54.76H371.891V71.4H355.251ZM354.483 145V81.512H372.403V145H354.483ZM411.432 145C398.12 145 391.08 141.544 391.08 124.776V96.488H380.2V81.512H391.08V64.104H409V81.512H424.616V96.488H409V122.6C409 128.488 410.664 129.768 416.68 129.768H424.232V145H411.432Z" fill="#2E1A47"/>
<path d="M134.596 146.536C116.164 146.536 101.828 132.84 101.828 113.256C101.828 93.672 116.292 79.976 134.596 79.976C153.028 79.976 167.364 93.672 167.364 113.256C167.364 132.84 153.028 146.536 134.596 146.536ZM134.596 131.048C142.532 131.048 149.06 125.032 149.06 113.256C149.06 101.48 142.532 95.464 134.596 95.464C126.788 95.464 120.132 101.48 120.132 113.256C120.132 125.032 126.66 131.048 134.596 131.048Z" fill="#7575E4"/>
<path d="M375 63C375 69.6274 369.627 75 363 75C356.373 75 351 69.6274 351 63C351 56.3726 356.373 51 363 51C369.627 51 375 56.3726 375 63Z" fill="#7575E4"/>
</svg>
